<svg width="178" height="67" viewBox="0 0 178 67" fill="none" xmlns="http://www.w3.org/2000/svg">
<path d="M89.2365 36.956C89.2365 35.228 89.0085 34.004 88.5525 33.284C88.1205 32.564 87.3645 32.204 86.2845 32.204C85.9485 32.204 85.6005 32.228 85.2405 32.276C84.8805 32.3 84.5325 32.336 84.1965 32.384V47H78.8325V28.712C79.2885 28.592 79.8165 28.472 80.4165 28.352C81.0405 28.208 81.6885 28.088 82.3605 27.992C83.0565 27.872 83.7645 27.788 84.4845 27.74C85.2045 27.668 85.9125 27.632 86.6085 27.632C87.9765 27.632 89.0805 27.812 89.9205 28.172C90.7845 28.508 91.4925 28.916 92.0445 29.396C92.8125 28.844 93.6885 28.412 94.6725 28.1C95.6805 27.788 96.6045 27.632 97.4445 27.632C98.9565 27.632 100.193 27.848 101.153 28.28C102.137 28.688 102.917 29.276 103.493 30.044C104.069 30.812 104.465 31.724 104.681 32.78C104.897 33.836 105.005 35.012 105.005 36.308V47H99.6405V36.956C99.6405 35.228 99.4125 34.004 98.9565 33.284C98.5245 32.564 97.7685 32.204 96.6885 32.204C96.4005 32.204 95.9925 32.276 95.4645 32.42C94.9605 32.564 94.5405 32.744 94.2045 32.96C94.3725 33.512 94.4805 34.1 94.5285 34.724C94.5765 35.324 94.6005 35.972 94.6005 36.668V47H89.2365V36.956ZM115.239 47H109.875V28.064H115.239V47ZM115.743 22.592C115.743 23.576 115.419 24.356 114.771 24.932C114.147 25.484 113.403 25.76 112.539 25.76C111.675 25.76 110.919 25.484 110.271 24.932C109.647 24.356 109.335 23.576 109.335 22.592C109.335 21.608 109.647 20.84 110.271 20.288C110.919 19.712 111.675 19.424 112.539 19.424C113.403 19.424 114.147 19.712 114.771 20.288C115.419 20.84 115.743 21.608 115.743 22.592ZM120.282 28.712C121.194 28.448 122.37 28.208 123.81 27.992C125.25 27.752 126.762 27.632 128.346 27.632C129.954 27.632 131.286 27.848 132.342 28.28C133.422 28.688 134.274 29.276 134.898 30.044C135.522 30.812 135.966 31.724 136.23 32.78C136.494 33.836 136.626 35.012 136.626 36.308V47H131.262V36.956C131.262 35.228 131.034 34.004 130.578 33.284C130.122 32.564 129.27 32.204 128.022 32.204C127.638 32.204 127.23 32.228 126.798 32.276C126.366 32.3 125.982 32.336 125.646 32.384V47H120.282V28.712ZM146.053 37.388C146.053 39.044 146.425 40.376 147.169 41.384C147.913 42.392 149.017 42.896 150.481 42.896C150.961 42.896 151.405 42.884 151.813 42.86C152.221 42.812 152.557 42.764 152.821 42.716V32.96C152.485 32.744 152.041 32.564 151.489 32.42C150.961 32.276 150.421 32.204 149.869 32.204C147.325 32.204 146.053 33.932 146.053 37.388ZM158.185 46.388C157.705 46.532 157.153 46.676 156.529 46.82C155.905 46.94 155.245 47.048 154.549 47.144C153.877 47.24 153.181 47.312 152.461 47.36C151.765 47.432 151.093 47.468 150.445 47.468C148.885 47.468 147.493 47.24 146.269 46.784C145.045 46.328 144.013 45.68 143.173 44.84C142.333 43.976 141.685 42.944 141.229 41.744C140.797 40.52 140.581 39.152 140.581 37.64C140.581 36.104 140.773 34.724 141.157 33.5C141.541 32.252 142.093 31.196 142.813 30.332C143.533 29.468 144.409 28.808 145.441 28.352C146.497 27.896 147.697 27.668 149.041 27.668C149.785 27.668 150.445 27.74 151.021 27.884C151.621 28.028 152.221 28.232 152.821 28.496V19.928L158.185 19.064V46.388ZM177.428 31.664C176.996 32.144 176.408 32.792 175.664 33.608C174.944 34.424 174.164 35.324 173.324 36.308C172.484 37.292 171.632 38.324 170.768 39.404C169.928 40.484 169.16 41.528 168.464 42.536H177.608V47H161.948V43.832C162.452 42.968 163.052 42.044 163.748 41.06C164.468 40.052 165.212 39.044 165.979 38.036C166.772 37.028 167.552 36.056 168.32 35.12C169.088 34.16 169.796 33.296 170.444 32.528H162.38V28.064H177.428V31.664Z" fill="#39335C"/>
<path d="M17.0251 61.6074C16.4995 58.0229 15.6812 54.4892 15.1348 50.9086C15.0618 47.6669 15.2004 44.4231 15.5486 41.1987C15.6832 39.8206 15.846 38.4498 16.0448 37.0858C16.3884 36.7684 16.7245 36.4416 17.0547 36.1088H17.0553C17.3272 37.8284 17.7236 39.5267 18.2426 41.1887C18.8406 43.3014 19.7968 45.2963 21.0677 47.0869C21.8921 48.2353 23.0164 49.1353 24.3182 49.6871C23.7149 50.0983 23.1008 50.492 22.4774 50.8684C22.0609 51.1202 22.4935 51.7362 22.908 51.4864C23.7209 50.9963 24.5232 50.4934 25.308 49.9684L25.6783 50.0226C26.3198 50.0902 26.9674 50.0561 27.5981 49.9208C27.5867 50.855 27.5981 51.7878 27.6336 52.7178C27.6671 54.2975 27.9109 55.8651 28.3575 57.3805C28.6716 58.6709 29.4196 59.8133 30.4762 60.6169C31.9782 61.5745 33.4735 60.4917 34.5209 59.3111L34.5216 59.3118C35.1483 60.1488 35.8274 60.9457 36.5545 61.6977C37.6467 62.8542 38.9418 63.8005 40.3755 64.4888C41.6317 65.0586 42.9992 65.3406 44.378 65.3144C46.7948 65.1872 49.1064 64.2845 50.97 62.7403C52.9803 61.1418 54.6234 59.1308 55.7893 56.8421C56.9425 54.7207 57.5391 52.3414 57.5223 49.9267C57.3998 47.3834 56.4797 44.9432 54.8919 42.9523C55.7229 42.2639 56.5406 41.5607 57.3454 40.8421C58.7563 39.5819 60.0989 38.2573 61.4456 36.9301C62.4059 35.9846 63.3963 35.0686 64.3338 34.0995V34.0989C65.4267 33.004 66.4064 31.8007 67.2569 30.509C68.0558 29.3579 68.5218 28.0092 68.6042 26.611C68.6658 25.2309 67.9915 23.9205 66.8316 23.1691C65.5861 22.6019 64.1779 22.5001 62.8634 22.8825C61.4552 23.2133 60.071 23.6405 58.7203 24.1608C58.0513 24.3959 57.3716 24.5941 56.7 24.8177C55.8188 25.1124 54.9503 25.4445 54.0938 25.8041L53.0103 26.2775C53.2293 24.9275 53.3599 23.5649 53.4007 22.1974C53.4831 20.3626 53.3331 18.5243 52.9534 16.7271C52.3132 13.9414 51.3717 10.4271 48.4942 9.15679C45.5029 7.83626 42.655 10.7191 40.7718 12.6671C39.8082 13.6682 38.9029 14.725 38.0617 15.8312C36.6146 15.6464 35.1468 15.704 33.7184 16.0013C34.0097 14.4584 34.2655 12.9096 34.4865 11.3547V11.3554C34.6606 10.3603 34.7832 9.35721 34.8535 8.34938V8.33532L34.8622 8.22282L34.8829 7.96768L34.9506 7.30273V7.30206C35.0905 6.18644 35.1414 5.0608 35.1046 3.9364C35.1414 2.8864 34.7644 1.86383 34.0552 1.08914C33.1807 0.476424 32.0002 0.542716 31.1999 1.25053C30.2376 1.97106 29.4027 2.8483 28.7303 3.84544C28.4009 4.2921 28.0875 4.75079 27.7848 5.2162L27.4721 5.69902L27.4607 5.7171L27.3247 5.91866L26.9022 6.55214C24.6536 9.96391 22.6768 13.5473 20.9886 17.2685C18.843 15.5107 16.405 13.2982 13.5388 14.0194V14.0187C12.2049 14.464 11.0451 15.3172 10.2227 16.4576C9.11915 17.8706 8.2165 19.4295 7.54141 21.0908C5.949 24.7659 5.08913 28.7167 5.0101 32.7219C4.94447 34.3438 5.18621 35.963 5.72259 37.4952C6.13174 38.7468 7.06455 39.7579 8.27859 40.2668C10.0464 40.7202 11.9242 40.3298 13.3652 39.2095C13.1744 41.0972 13.1925 43.001 13.4188 44.8853C13.6337 47.1099 13.9217 49.3378 14.2853 51.5462C14.3878 55.0397 15.0145 58.4985 16.1457 61.8058C16.2287 62.0141 16.451 62.1313 16.67 62.0817C16.8883 62.0328 17.039 61.8319 17.0249 61.6076L17.0251 61.6074ZM15.2164 36.3389L15.197 36.3569L15.2224 36.2994L15.2164 36.3389ZM21.9556 46.6842C20.6719 44.9566 19.7217 43.0038 19.1544 40.9273C18.5886 39.0503 18.1862 37.1278 17.9518 35.181C18.6475 34.4444 19.3299 33.6931 20.0183 32.9564L20.2125 32.7508C20.7188 34.1658 21.3087 35.5513 21.9141 36.9241L22.5094 38.2439H22.5088C22.2858 38.8352 22.182 39.4647 22.2047 40.0962C22.2121 40.2335 22.2945 40.356 22.419 40.4143C22.5436 40.4726 22.6902 40.4578 22.8001 40.3755C22.7907 41.5179 22.8757 42.6589 23.0559 43.7873C22.776 44.552 22.6956 45.3763 22.8235 46.1806C22.9172 46.717 23.2213 47.1931 23.6686 47.5031C24.1152 47.8138 24.6677 47.933 25.2027 47.8339C26.1074 47.5888 26.9157 47.0732 27.5184 46.3553L27.6617 46.5127L27.722 46.6727L27.6965 47.0893C26.9284 47.7556 26.1276 48.3911 25.3011 48.993C23.9599 48.6187 22.782 47.8057 21.9555 46.684L21.9556 46.6842ZM16.3332 35.2601L16.4926 34.3714L16.7839 34.0761L16.8395 34.575L16.8589 34.7217L16.3332 35.2601ZM17.7957 33.7259L17.7589 33.2712C17.9759 33.1179 18.1982 32.9732 18.4265 32.8386L18.8223 32.6177L17.7957 33.7259ZM21.5349 23.3826H21.5356C21.9233 23.1958 22.3258 23.0404 22.7383 22.9185C23.1334 22.796 23.5378 22.7069 23.9477 22.6527C24.407 22.5851 24.8704 22.5435 25.3345 22.5295C25.609 22.5194 25.8722 22.5181 26.1327 22.5241L26.1923 22.5697H26.1916C25.7651 23.5614 25.4282 24.5893 25.1845 25.6413C24.557 26.2748 23.9604 26.9344 23.381 27.5805C22.6143 28.4383 21.873 29.3197 21.1156 30.1854L20.6743 30.6735H20.6737C20.1728 29.0818 19.9069 27.4251 19.8848 25.7563C19.8868 25.3116 19.929 24.8677 20.0114 24.4304C20.1781 24.273 20.3556 24.127 20.5424 23.9931L21.0453 23.6529L21.3071 23.4996L21.4123 23.4433L21.5349 23.3826ZM53.6624 43.0163L53.3363 43.2788H53.3356C50.1709 45.7947 46.8769 48.1445 43.4671 50.3168C41.5768 51.5309 39.6623 52.7122 37.7196 53.8417C37.9373 53.3368 38.1449 52.8292 38.3491 52.323L38.5996 51.6882C39.3589 51.3031 40.0734 50.8344 40.729 50.2913C40.9628 50.1969 41.1951 50.0911 41.4221 49.9772C43.8053 48.7491 45.653 46.6867 46.6125 44.1828C46.9312 43.3678 47.1609 42.5207 47.2989 41.6562C47.8044 40.7281 48.2852 39.7832 48.75 38.8351C50.2801 39.7973 51.6917 40.9364 52.956 42.2288C53.2004 42.4826 53.4368 42.7451 53.6624 43.0163L53.6624 43.0163ZM24.8178 35.2264L24.2647 35.7179L24.3243 35.4106C24.4321 34.8601 24.5466 34.3097 24.6685 33.7592C24.7073 34.2488 24.7575 34.7376 24.8178 35.2264H24.8178ZM27.621 34.9465L27.2199 36.1204C27.315 35.734 27.4429 35.3557 27.6023 34.99L27.621 34.9465ZM28.9824 33.8168L29.7672 33.5115C29.6232 34.0726 29.4873 34.6358 29.358 35.201L28.8431 35.7334L28.071 36.4961C28.381 35.6055 28.6851 34.7122 28.983 33.8168H28.9824ZM36.5734 24.306C36.0102 24.0221 35.4384 23.7562 34.8584 23.5071L34.5665 23.3002C35.0305 22.3834 35.5247 21.4827 36.0491 20.5988V20.5995C36.4154 21.0066 36.7502 21.4412 37.0509 21.8986C37.8283 23.0812 38.4799 24.3414 38.9942 25.6599C38.208 25.1697 37.3951 24.7217 36.5734 24.3059L36.5734 24.306ZM28.7138 22.8401L28.7365 22.802L28.772 22.8087L28.7138 22.8401ZM32.9144 22.2709L32.4176 22.0024C32.6539 21.0354 32.8789 20.0651 33.0919 19.0916C33.341 19.0802 33.5908 19.1009 33.8345 19.1538C34.2263 19.2503 34.5993 19.4123 34.9368 19.634L35.3158 19.9112C35.076 20.3157 34.8417 20.7235 34.6126 21.1353C34.3133 21.673 34.026 22.2161 33.7502 22.7652L32.9144 22.2709ZM27.9188 21.5122L27.9523 21.4593L28.3193 21.5712L27.9188 21.5122ZM26.8822 21.1901L26.767 21.395L26.4115 21.3743L25.9554 21.0247L26.5809 21.1299L26.8822 21.1901ZM30.0972 42.7593C31.1666 41.9423 32.2299 41.1166 33.2873 40.2842C32.2306 42.2522 30.882 44.0482 29.2875 45.6125C29.163 45.2811 29.0471 44.9469 28.9393 44.6094C29.3538 44.0141 29.7369 43.392 30.0965 42.7599L30.0972 42.7593ZM30.643 41.7608L30.6791 41.6925C31.7311 39.8805 32.4685 37.9031 32.8602 35.8446C33.0423 34.9285 32.9071 33.9782 32.4772 33.1499L32.2957 32.8894L32.3593 32.7488L32.964 32.6269L33.4897 32.7642C34.1091 32.9276 34.7272 33.097 35.3438 33.2724C35.2762 33.9186 35.1757 34.5796 35.0565 35.205V35.2056C34.7887 36.6032 34.3594 37.9646 33.7782 39.263C32.7362 40.0981 31.6909 40.9304 30.6423 41.7607L30.643 41.7608ZM30.7159 33.553L30.7488 33.4278L30.8077 33.2082L30.9135 33.253L30.7159 33.553ZM29.6117 31.8916L29.6204 31.8648L29.7255 31.8843L29.6117 31.8916ZM38.741 33.0729L39.0336 33.3059C38.1845 33.0253 37.3334 32.7588 36.4802 32.5077L36.4855 32.4053V32.4046C36.8123 32.4347 37.1371 32.4863 37.4578 32.5579L37.7183 32.6229L37.8449 32.659L37.8663 32.6664L37.8857 32.6731L38.3819 32.874L38.5902 32.9825L38.741 33.0729ZM39.0055 32.1126C39.5151 32.2793 40.0394 32.3979 40.5711 32.4655C40.7024 32.7903 40.8236 33.1177 40.9361 33.4479L40.9535 33.6588L40.6702 33.8691L40.4325 33.784C40.1901 33.0635 39.6785 32.4642 39.0048 32.1126L39.0055 32.1126ZM30.3463 26.0697C29.9264 27.6046 29.4811 29.132 29.011 30.6515C28.3199 30.5363 27.6255 30.4453 26.9324 30.383H26.9318C27.0242 29.7381 27.1628 29.1006 27.3469 28.4758C27.7434 27.2223 28.3789 26.0578 29.22 25.0466L30.3463 26.0697ZM31.6166 25.1135C31.7237 25.4255 31.8081 25.745 31.8677 26.0691L31.4592 25.6927L31.6166 25.1135ZM36.5191 31.4543C36.5225 31.2969 36.5231 31.1396 36.5211 30.9815C36.9571 31.234 37.405 31.4637 37.8638 31.6706C37.4225 31.5588 36.9718 31.4864 36.5178 31.4536L36.5191 31.4543ZM35.4457 31.4235C34.7365 31.4389 34.0294 31.5012 33.3282 31.6117L32.8099 31.4751C33.061 30.5248 33.1762 29.5431 33.1514 28.5608C33.88 29.1775 34.64 29.7568 35.4275 30.2965C35.4402 30.6742 35.4469 31.0512 35.4442 31.4235H35.4457ZM31.8169 31.2266L31.4084 31.1309C31.6354 30.399 31.8785 29.6717 32.139 28.9498H32.1396C32.1276 29.7192 32.0191 30.4839 31.8155 31.2265L31.8169 31.2266ZM30.493 30.9293L29.9492 30.8208C30.3658 29.4869 30.7655 28.1476 31.1486 26.8029L31.6401 27.2455L31.7325 27.3279C31.2758 28.5125 30.8626 29.7131 30.493 30.9292L30.493 30.9293ZM36.3872 33.5763C37.472 33.8998 38.5529 34.2466 39.6229 34.6196L39.6263 34.6558L39.1428 35.0268L39.0069 35.0549C38.7618 35.1152 38.5535 35.2766 38.3124 35.3522L38.2977 35.3562L38.2917 35.3582L38.2093 35.371H38.2086C38.0928 35.3844 37.9816 35.4212 37.8798 35.4781C37.6481 35.6623 37.5296 35.9549 37.5691 36.2482C36.8486 36.8141 36.1294 37.3833 35.4122 37.9571C35.8944 36.5362 36.2218 35.0677 36.3872 33.5763V33.5763ZM42.1561 33.5161C42.8197 33.0426 43.4894 32.5772 44.1637 32.1192C44.9546 33.3453 45.5546 34.6839 45.9437 36.0895C44.7999 35.5216 43.6287 35.0073 42.4388 34.5359C42.3544 34.1924 42.26 33.8522 42.1562 33.516L42.1561 33.5161ZM41.9606 32.9174L41.816 32.5143L42.1601 32.4875L42.659 32.4152L41.9606 32.9174ZM43.3729 31.1469C42.8258 31.3578 42.2472 31.4757 41.6619 31.4951C41.4992 30.4779 41.2742 29.4707 40.9869 28.481C41.5434 28.9592 42.0691 29.4721 42.5599 30.0172C42.8767 30.3694 43.178 30.7344 43.4633 31.1114L43.3729 31.1469ZM39.9356 28.337L40.186 29.1982C39.5746 28.2111 38.8769 27.2802 38.1007 26.4171C38.6278 26.7338 39.1414 27.0706 39.6409 27.4262L39.9356 28.337ZM36.41 26.2992H36.4093C37.9133 27.755 39.1515 29.4619 40.0702 31.343C38.7911 31.0242 37.5757 30.4899 36.4768 29.7626C36.4186 28.3416 36.14 26.938 35.6512 25.6027C35.9096 25.8284 36.1628 26.0601 36.4092 26.2985L36.41 26.2992ZM35.3251 28.9805C34.5303 28.4026 33.7722 27.7732 33.0323 27.1209L32.9821 26.7559C33.2774 26.0421 33.5881 25.3343 33.9142 24.6338L33.9149 24.6345C34.0414 24.8153 34.1546 25.0048 34.2551 25.201C34.8383 26.3856 35.2013 27.666 35.3252 28.9805L35.3251 28.9805ZM33.1334 24.0271L32.6406 25.1139H32.6412C32.5053 24.6003 32.2883 24.1121 31.9984 23.6675L32.0078 23.6313C32.3821 23.7525 32.7578 23.8845 33.1341 24.0264L33.1334 24.0271ZM30.9009 23.9735H30.9036L30.6491 24.9445L30.167 24.5012L29.9306 24.2856C30.094 24.1463 30.2795 24.0365 30.4797 23.9595C30.6163 23.9066 30.7683 23.9113 30.9009 23.9729L30.9009 23.9735ZM27.2299 23.3749L26.8355 24.1302L26.6413 24.2909C26.7645 23.932 26.8985 23.5771 27.0471 23.2296L27.2299 23.3749ZM28.4038 24.3331L28.4172 24.3452C28.0469 24.8133 27.7241 25.3289 27.4047 25.7849C26.5443 27.153 26.0092 28.7012 25.8425 30.3091L25.5914 30.2997L25.5974 30.1651C26.0594 28.6035 26.6219 27.0727 27.2829 25.584L27.5614 24.98C27.834 24.755 28.1159 24.5367 28.4045 24.3325L28.4038 24.3331ZM24.5829 30.0861L24.5219 30.2937L24.5226 30.293C23.7914 30.3057 23.0614 30.364 22.3369 30.4671C22.9811 29.7245 23.6166 28.9745 24.2715 28.2413L24.8045 27.6533C24.6913 28.4582 24.6197 29.2705 24.5842 30.0856L24.5829 30.0861ZM28.6792 31.702L28.5258 32.1908H28.5265C28.0524 32.4285 27.6365 32.7687 27.3091 33.1866C27.1443 33.3941 26.9943 33.6131 26.8611 33.8421L26.7901 33.8823C26.7472 33.0767 26.7546 32.2698 26.8122 31.4655C27.439 31.5218 28.0611 31.6021 28.6811 31.7012L28.6792 31.702ZM25.6718 33.749C25.6041 32.9628 25.5693 32.1747 25.5673 31.3845L25.7207 31.3905H25.722C25.6604 32.1746 25.6443 32.9622 25.6738 33.7483L25.6718 33.749ZM30.1483 35.9059H30.1496C30.7021 35.328 31.2043 34.7039 31.649 34.0389L31.6764 34.1159L31.7159 34.2465L31.732 34.3007L31.7354 34.3322H31.736C31.8566 35.2322 31.7608 36.1476 31.4575 37.0027C30.8822 38.8308 30.1034 40.5873 29.1344 42.24L29.0454 42.4C29.3119 40.2203 29.6775 38.0487 30.1503 35.9051L30.1483 35.9059ZM27.437 38.6453L27.4323 38.6118C27.9278 38.0989 28.4441 37.604 28.9557 37.1058C28.643 38.6976 28.3852 40.298 28.1836 41.9086C27.9104 40.8271 27.6593 39.7369 27.439 38.6454L27.437 38.6453ZM24.6533 40.3663C24.3754 39.8326 24.1062 39.2929 23.8471 38.7471C23.8873 38.2516 23.9442 37.756 24.0125 37.2612H24.0132C24.2964 36.8982 24.6118 36.5614 24.9547 36.254C25.1 37.2377 25.2808 38.2181 25.4924 39.1918C25.1904 39.5661 24.9105 39.9585 24.6547 40.3663L24.6533 40.3663ZM25.2761 41.5114L25.246 41.4585L25.3859 41.2181L25.2761 41.5114ZM24.0748 41.3808L23.8029 41.9312C23.7788 41.5562 23.7667 41.1819 23.7654 40.8069L24.0748 41.3808ZM26.1439 41.8248C26.318 42.4609 26.5035 43.0931 26.7004 43.7218L26.7325 43.8249C26.4352 43.4024 26.1506 42.9705 25.878 42.5285L26.1439 41.8248ZM24.83 42.6913L24.139 44.4839L24.0747 44.1558C24.1778 43.8129 24.299 43.4754 24.4363 43.1453L24.7156 42.4998L24.83 42.6913ZM25.4475 43.6623C25.6912 44.0272 25.9423 44.3882 26.2048 44.7411C26.4037 45.0089 26.6093 45.2741 26.8209 45.5353C26.5129 45.8667 26.1707 46.1641 25.7991 46.4219C25.637 46.5397 25.4589 46.6342 25.27 46.7025L25.1194 46.7534L25.0196 46.7781L24.9064 46.7922L24.7658 46.8009C24.5033 46.7882 24.2575 46.667 24.0881 46.4668C24.2529 46.4601 24.3995 46.3589 24.4631 46.2063C24.7946 45.3598 25.1221 44.5121 25.4475 43.6623L25.4475 43.6623ZM29.6797 46.5805C29.9482 46.3307 30.2134 46.0783 30.4739 45.8178C32.4554 43.839 34.0183 41.4818 35.0683 38.8856C35.8954 38.238 36.7244 37.5925 37.5547 36.9496C37.4824 37.6775 37.5166 38.4108 37.4135 39.1353C37.2568 39.9617 36.9514 40.7525 36.5128 41.4697C35.6463 42.9844 34.54 44.3492 33.237 45.5096C32.353 46.3272 31.3914 47.0564 30.3662 47.6865L30.1091 47.487C29.9584 47.1937 29.8184 46.8957 29.6885 46.599L29.6797 46.5805ZM32.5806 47.3231V47.3238C34.0002 46.2463 35.2631 44.9768 36.3334 43.551C37.4289 42.2331 38.1534 40.6474 38.4333 38.9566C38.4695 38.5909 38.4749 38.2219 38.4863 37.8543C38.499 37.4351 38.5452 37.0193 38.5592 36.6007L38.5666 36.2961L38.6088 36.2853C38.8499 36.2257 39.0514 36.0744 39.2845 35.9914C39.4693 35.9519 39.6595 35.9385 39.8476 35.9519C40.4262 35.9405 40.593 35.451 40.609 34.9715L41.0296 35.1249C41.0456 35.7985 41.0389 36.4735 41.0088 37.1498C40.822 40.4746 40.2394 43.7652 39.2738 46.9521C38.7535 47.6994 38.1494 48.3851 37.4731 48.9951C37.0579 49.3735 36.6046 49.7083 36.1204 49.9936C34.376 49.8295 32.6972 49.2442 31.2287 48.2887C31.7008 47.98 32.1528 47.6518 32.58 47.323L32.5806 47.3231ZM41.7995 39.2399L41.8002 39.2406C41.7627 40.3033 41.6127 41.36 41.3522 42.3913L41.2966 42.5969C41.5129 41.4833 41.683 40.363 41.7995 39.2393L41.7995 39.2399ZM38.45 49.5639L38.3281 49.9161L37.9946 49.9617L38.45 49.5639ZM27.6191 48.9277H27.6198C27.2789 49.0128 26.9314 49.067 26.5812 49.0898C26.9394 48.8326 27.293 48.5688 27.6412 48.2996L27.6191 48.9277ZM31.6564 49.6978H31.6571C32.2605 50.0219 32.8913 50.2911 33.5428 50.5021L34.0993 50.6648C33.575 50.7023 33.0486 50.6266 32.5564 50.4418C32.2946 50.2663 32.0475 50.0695 31.8172 49.8532L31.6564 49.6978ZM36.4203 51.021C36.6995 51.0331 36.9774 51.0351 37.2553 51.0257C36.7765 51.1851 36.279 51.2829 35.7754 51.3157C35.9957 51.2286 36.2107 51.1295 36.4203 51.0197V51.021ZM31.4857 51.0847L31.4864 51.084C32.5879 51.9706 33.9567 52.4594 35.3709 52.4715C36.0928 52.4829 36.812 52.3717 37.4963 52.1427C37.0356 53.2931 36.5273 54.4242 35.9662 55.5197V55.519C35.563 56.3186 35.105 57.0886 34.5954 57.8245C33.7235 56.5549 32.9508 55.2485 32.2611 54.0524C31.5198 52.766 30.8307 51.4455 30.1933 50.0902C30.5737 50.4819 31.0089 50.8161 31.4857 51.0833L31.4857 51.0847ZM47.4613 39.1784C47.4513 38.7907 47.4258 38.403 47.3843 38.0159L47.8939 38.3099L47.4613 39.1784ZM46.2693 41.419C45.8086 42.24 45.3251 43.0462 44.8182 43.8384L44.8189 43.8377C43.5968 45.834 42.0862 47.6386 40.3369 49.1928L39.9713 49.4908L39.3405 49.6944C39.5541 49.0883 39.7583 48.4776 39.9525 47.8616L39.9519 47.8623C40.6416 46.9154 41.2208 45.8929 41.6775 44.8148C42.8574 41.9982 43.217 38.9051 42.7147 35.8931L42.6953 35.7753C43.8913 36.2628 45.0778 36.7958 46.2303 37.3905L46.2765 37.6885C46.4567 38.9253 46.454 40.1822 46.2692 41.4191L46.2693 41.419ZM47.1908 36.7375C47.1024 36.2868 46.9939 35.8415 46.8647 35.4022C46.4542 34.0281 45.8488 32.7197 45.0674 31.5169C45.7511 31.0669 46.4422 30.6276 47.1413 30.1997C48.632 29.289 50.1607 28.4386 51.7305 27.6751L51.7298 27.6744C50.9805 31.0327 49.8427 34.2919 48.3388 37.3869C47.9604 37.1626 47.5781 36.9463 47.1917 36.7367L47.1908 36.7375ZM42.1055 28.01C41.5564 27.5031 40.9778 27.0283 40.3732 26.5897C40.1723 26.0292 39.9554 25.4761 39.727 24.929C39.0192 23.0098 37.9519 21.2433 36.5823 19.7246C37.1723 18.7811 37.7991 17.8624 38.4627 16.9684C39.4665 17.1311 40.4496 17.405 41.3925 17.7853C44.213 18.7489 46.3104 21.1369 46.901 24.0586C47.1213 25.27 47.0068 26.5182 46.5708 27.6692C46.1342 28.8196 45.3923 29.8301 44.4245 30.5909C43.7321 29.6614 42.956 28.7976 42.1056 28.01L42.1055 28.01ZM35.8329 19.0609C35.1137 18.479 34.2271 18.1415 33.303 18.0967L33.4898 17.1799L33.5782 17.1545C34.799 16.8377 36.0639 16.7292 37.3208 16.8324C36.8019 17.5596 36.3057 18.3016 35.8329 19.0602L35.8329 19.0609ZM32.2382 18.2319H32.2389C31.4909 18.469 30.8025 18.8621 30.2186 19.3864C29.8088 19.7413 29.4291 20.1304 29.0843 20.5496L28.6764 20.4163C29.6447 19.1668 30.9177 18.1864 32.3735 17.5697L32.2382 18.2319ZM31.9905 19.4005C31.8351 20.1163 31.6731 20.8301 31.5043 21.5419C31.0396 21.3196 30.5662 21.1107 30.0867 20.9192H30.0874C30.6097 20.2864 31.2579 19.7694 31.9906 19.3997L31.9905 19.4005ZM22.6785 19.9475L22.1963 20.0949C21.4925 20.3446 20.8544 20.7511 20.33 21.2835L20.7967 20.1397L21.3124 18.9304C21.7637 19.2725 22.2217 19.61 22.6798 19.9462L22.6785 19.9475ZM23.1861 21.0652C23.4626 20.9996 23.7439 20.9567 24.0271 20.9359L24.6439 21.3953V21.3946C23.3474 21.471 22.0791 21.8071 20.916 22.3837C21.5093 21.7094 22.3068 21.246 23.1867 21.0638L23.1861 21.0652ZM19.3008 29.7659C19.4113 30.2179 19.5345 30.6665 19.6698 31.1132L19.6704 31.1125C18.9807 31.3623 18.3191 31.6831 17.6956 32.0694C17.6474 30.8915 17.7251 29.7123 17.9273 28.5512C18.0726 27.7021 18.3485 26.8804 18.7449 26.1157C18.7951 27.3492 18.982 28.5726 19.3014 29.7646L19.3008 29.7659ZM21.0552 31.8765L21.1704 31.756C22.1715 31.5249 23.1941 31.3977 24.2213 31.3763C23.7425 33.1763 23.3635 35.0011 23.0863 36.8426L23.0608 37.0134C22.5599 35.8596 22.0925 34.6904 21.6485 33.5226C21.4443 32.9802 21.2434 32.4311 21.0559 31.8759L21.0552 31.8765ZM32.2456 60.0216C31.9456 60.1395 31.6147 60.1549 31.3047 60.0665C30.8848 59.9038 30.5212 59.6232 30.258 59.2583C29.4197 58.0576 28.902 56.6633 28.7534 55.2069C28.5351 53.6352 28.4514 52.0481 28.5036 50.4624L28.519 49.6676L28.9067 49.5256C29.5496 50.96 30.2527 52.3648 31.0155 53.741C31.9201 55.4158 32.9187 57.039 34.0041 58.6026C33.5488 59.2173 32.9434 59.7055 32.2463 60.0209L32.2456 60.0216ZM56.2678 48.1248V48.1242C56.7219 50.3334 56.5069 52.6281 55.6518 54.7147C54.7518 57.0606 53.355 59.1839 51.5562 60.9385C49.9088 62.6373 47.7834 63.7938 45.4617 64.2539C43.3751 64.3959 41.2912 63.9358 39.4583 62.9287C37.6255 61.9208 36.1207 60.4081 35.1223 58.5706L35.1458 58.5385C35.9976 57.3492 36.7261 56.0769 37.3202 54.7403L37.3945 54.7081C40.9175 52.6865 44.4097 50.6167 47.7625 48.3185C49.9415 46.8259 52.0588 45.2503 54.1155 43.5908L54.1161 43.5915C55.1394 44.9368 55.8719 46.4804 56.2684 48.1237L56.2678 48.1248ZM57.2261 25.4414C57.8723 25.2325 58.5225 25.0396 59.1634 24.8146C59.8237 24.5843 60.4826 24.3492 61.1482 24.1383C61.8319 23.9146 62.5283 23.7325 63.2342 23.5925C63.5817 23.5262 63.9319 23.48 64.2842 23.4532L64.7696 23.4352H64.7703C64.919 23.4332 65.0676 23.4405 65.2156 23.4573C65.7821 23.4921 66.3266 23.6903 66.7833 24.0285C67.2594 24.4336 67.5962 24.978 67.7462 25.5847C67.9022 26.1546 67.9277 26.7526 67.8212 27.3338C67.706 27.978 67.4917 28.6001 67.1864 29.1794C66.4839 30.4973 65.604 31.7119 64.5707 32.7907C63.6064 33.8561 62.5645 34.8492 61.5272 35.8449C60.3292 36.994 59.1728 38.1833 57.9532 39.311C56.8115 40.3684 55.6403 41.3916 54.4396 42.3806V42.3799C53.1378 40.8478 51.6251 39.5078 49.947 38.3995L49.197 37.91V37.9107C50.7881 34.6469 51.9827 31.2049 52.7569 27.6577L52.8594 27.1448L52.8587 27.1441C54.2817 26.4952 55.7395 25.9267 57.2262 25.4412L57.2261 25.4414ZM40.9364 16.4748H40.9358C40.3646 16.2867 39.782 16.1326 39.1927 16.0141C39.48 15.6492 39.7739 15.2896 40.0739 14.9353H40.0733C41.1159 13.6777 42.2636 12.5118 43.5053 11.4505C44.4843 10.4601 45.8075 9.8849 47.2004 9.84471C48.6535 10.14 49.8743 11.1211 50.475 12.4777C51.1474 13.8063 51.6348 15.2205 51.9235 16.6811C52.3011 18.4148 52.4652 20.188 52.4123 21.9613C52.3802 23.5845 52.2107 25.2023 51.9061 26.7968C50.1422 27.66 48.4252 28.6161 46.7632 29.6622C48.1541 27.4477 48.4427 24.7149 47.5453 22.2585C46.3119 19.4433 43.8898 17.324 40.9359 16.4756L40.9364 16.4748ZM25.8454 10.1889C26.6811 8.81143 27.5924 7.49026 28.4832 6.14901C29.0631 5.2423 29.6946 4.36975 30.3735 3.5354C30.7304 3.09812 31.1302 2.69702 31.5668 2.33808C31.761 2.18138 31.9686 2.04209 32.1869 1.92156C32.3503 1.84589 32.5204 1.78696 32.6952 1.74679L32.9222 1.73272L33.1204 1.76889L33.2329 1.8258L33.2556 1.83719L33.2771 1.85326L33.3882 1.94433C33.488 2.03138 33.413 1.95839 33.4632 2.01866H33.4639C33.7083 2.34679 33.8684 2.72982 33.93 3.13428C34.0954 4.21308 34.1101 5.30937 33.9742 6.39211C33.8784 7.50707 33.7766 8.61726 33.642 9.72623C33.3748 11.9287 33.034 14.1191 32.6202 16.2967C30.6139 16.9811 28.8729 18.2788 27.6441 20.0059L27.5704 20.1084C26.9959 19.9684 26.4133 19.862 25.826 19.791C25.295 19.724 24.7586 19.7006 24.2235 19.7207C23.4628 19.1542 22.7014 18.5923 21.9461 18.0258L21.7733 17.8959C22.978 15.2489 24.3374 12.6754 25.8454 10.189L25.8454 10.1889ZM10.092 39.3678C9.91384 39.3892 9.73439 39.3979 9.55426 39.3945L9.38283 39.3825L9.12902 39.3477L8.78617 39.2693L8.63282 39.2151L8.41586 39.12L8.23639 39.0242L8.11184 38.9472L7.81184 38.7088L7.66318 38.5682L7.59152 38.4939L7.58952 38.4919L7.31028 38.1336L7.07456 37.7586L7.02099 37.6602L7.0163 37.6508L6.89912 37.4044H6.89978C6.76117 37.0903 6.64532 36.7669 6.55158 36.4367L6.48395 36.1843L6.43573 35.9861L6.3306 35.439C6.26364 35.0405 6.21944 34.6381 6.18796 34.2343C6.15381 33.8044 6.13975 33.3725 6.13774 32.9412C6.13774 32.7263 6.13975 32.5093 6.14511 32.2937L6.17323 31.6729V31.6736C6.30381 29.7056 6.62724 27.7556 7.13752 25.8503C7.61765 23.9727 8.28194 22.1466 9.12095 20.3994C9.31848 19.9896 9.52876 19.5865 9.75175 19.19L10.0685 18.6456L10.2312 18.3838L10.2922 18.288L10.3712 18.1682H10.3718C10.7971 17.5186 11.2859 16.9133 11.831 16.3608L12.0145 16.1847L12.058 16.1452L12.123 16.0876L12.5301 15.7615L12.9111 15.5043L13.104 15.3912L13.1375 15.3731L13.2359 15.3235L13.6263 15.1608L13.8238 15.0972L13.9243 15.0697L13.9551 15.0617H13.9544C14.6448 14.9365 15.3567 15.0028 16.0123 15.2539C17.5216 15.9229 18.9065 16.8449 20.1058 17.9799L20.5237 18.3161C19.5112 20.635 18.6131 22.9982 17.829 25.405L17.7633 25.5242L17.764 25.5249C17.2805 26.4771 16.9558 27.5016 16.8017 28.5583L16.7207 29.1496C16.3162 30.675 15.9654 32.2132 15.6674 33.7627L15.668 33.7634C15.2703 34.2074 14.9207 34.6929 14.6241 35.2098C14.1935 35.9752 13.8687 36.7956 13.6591 37.6488L13.2346 37.9601V37.9595C12.3171 38.6773 11.2383 39.1608 10.0919 39.3677L10.092 39.3678ZM14.3014 40.1077C14.3489 39.5204 14.434 38.9365 14.5545 38.36L14.9737 38.0258C14.6851 40.1781 14.4822 42.341 14.3664 44.5141C14.219 43.0496 14.1976 41.5756 14.3021 40.1078L14.3014 40.1077Z" fill="#5950C0"/>
<path d="M67.6855 26.495C66.972 25.7995 66.0046 25.3745 64.9719 25.3032C62.5972 25.2093 60.2301 25.6141 58.048 26.4868C57.4333 26.688 56.8233 26.9049 56.2166 27.13C57.1494 26.4351 58.0684 25.7251 58.9725 24.9993L58.9731 24.9987C59.2373 24.7868 59.3217 24.44 59.1801 24.1436C59.0385 23.8473 58.7042 23.6719 58.357 23.711C56.5767 24.0244 54.9027 24.7275 53.4756 25.7623C51.8097 26.7719 50.2534 27.702 48.6139 28.8136L47.9644 29.2576C48.9781 27.7883 49.9809 26.3128 50.9729 24.8296C51.8859 23.4637 52.7465 22.0701 53.6683 20.7106C54.3089 19.7659 54.955 18.8244 55.5486 17.8528C56.2553 16.7518 56.8394 15.5871 57.2908 14.3764C57.7279 13.4015 57.7708 12.3139 57.4127 11.3125C57.0804 10.7551 56.5433 10.3263 55.8992 10.1037C55.2552 9.88173 54.5458 9.88047 53.9011 10.1012C52.1677 10.6233 50.5624 11.4557 49.175 12.5504C48.5697 12.9804 47.9767 13.4256 47.3974 13.8853C47.202 12.9678 46.8317 12.0894 46.3047 11.2918C45.3707 10.1618 44.1065 9.30363 42.6618 8.81999C41.2165 8.33633 39.6519 8.24679 38.1543 8.56335C34.2811 9.1479 30.6368 10.648 27.5732 12.9182C27.211 13.1679 26.8536 13.4239 26.5016 13.6863C25.9849 13.458 25.4627 13.2404 24.9358 13.0336H24.9351C21.7551 11.6785 18.2898 10.993 14.7891 11.027C11.8316 11.0226 9.04233 12.3021 7.25329 14.4839C6.08571 16.3049 5.76505 18.4868 6.36347 20.5311C6.96258 22.8063 7.95383 24.9767 9.29844 26.9599C10.097 28.2059 10.9637 29.4134 11.8944 30.5781C10.2074 33.3502 8.79685 36.259 7.6802 39.2682C7.40924 39.965 7.20635 40.6825 7.07496 41.4127C6.50309 42.1171 5.94686 42.8309 5.40699 43.5542C4.24621 45.0979 3.19165 46.7078 2.25016 48.3743C1.80695 49.1651 1.39438 49.9735 1.03288 50.7984C0.703371 51.4176 0.638694 52.1295 0.849737 52.7917C1.33788 53.986 3.08687 53.7376 4.11899 53.5087C5.77266 53.1435 7.41264 52.6227 9.02147 52.1188H9.02215C13.1464 50.8054 17.17 49.2346 21.0656 47.4185L20.796 48.2194C20.6401 48.703 20.5033 49.1911 20.3726 49.6817L20.3569 49.8109C19.1594 51.033 18.0068 52.291 16.8984 53.585C16.6785 53.8694 16.6914 54.2547 16.9304 54.5252C17.2252 54.8493 17.7453 54.8978 18.1034 54.6336C21.7158 52.1744 25.1763 49.5298 28.4706 46.7136L29.7723 45.6278C30.9753 46.2968 32.2083 46.9242 33.4691 47.4987C29.1256 53.7018 24.8556 59.9602 20.0641 65.879C19.8919 66.1104 19.883 66.4143 20.041 66.654C20.1989 66.8942 20.4944 67.0254 20.7953 66.9894C21.3488 66.9352 21.873 66.7277 22.2978 66.3942C22.4619 66.2718 22.562 66.0902 22.5722 65.896C22.5824 65.7012 22.5021 65.5114 22.3516 65.3751C26.7394 59.7649 30.7091 53.8872 34.747 48.0555C36.4333 48.7661 38.1701 49.3683 39.9463 49.8583C42.3883 50.5564 44.9488 50.8288 47.4977 50.6617C48.4086 50.5992 49.308 50.434 50.1767 50.1711C50.1181 50.7676 51.1284 50.854 51.2353 50.2436L51.3184 49.7196C52.2089 49.3059 52.9462 48.6571 53.4377 47.8549C54.3275 46.0564 54.2982 43.9832 53.358 42.2069L53.4949 42.1507L53.4942 42.1514C55.312 41.4035 57.0548 40.51 58.7038 39.4802C60.7856 38.2216 62.7524 36.8066 64.5845 35.2496C66.5909 33.7722 67.9899 31.7032 68.5495 29.3866C68.7061 28.353 68.3936 27.3062 67.6856 26.4947L67.6855 26.495ZM8.81705 43.1109L8.7122 43.0421L8.70676 43.0383L8.69927 43.0308L8.61212 42.9311L8.59919 42.9059L8.53587 42.7704L8.5243 42.7439L8.46235 42.3662L8.45554 42.2526L8.45894 42.1227L8.46167 42.0723C9.99143 40.1736 11.6321 38.3494 13.3253 36.5805C13.9945 35.8812 14.6814 35.1958 15.386 34.5242C16.687 35.851 18.0622 37.1203 19.475 38.3393C18.8724 38.7782 18.2611 39.2057 17.6415 39.6212C16.1287 40.6529 14.5083 41.5426 12.805 42.2766C12.031 42.6165 11.2229 42.8851 10.3929 43.0787L9.80403 43.1834H9.80335C9.67332 43.2023 9.54124 43.2124 9.40917 43.2149L8.99184 43.1739C9.14366 43.2004 8.71544 43.0484 8.8162 43.1108L8.81705 43.1109ZM19.5853 36.7123C18.4729 35.7255 17.3821 34.7033 16.331 33.6432C17.6286 32.4577 18.9929 31.3359 20.4185 30.2829C20.3593 30.6115 20.311 30.9406 20.2742 31.2711V31.2717C20.0502 33.28 20.2797 35.3106 20.9482 37.2326L20.5397 37.5454L19.5853 36.7123ZM28.3914 15.8848C29.3119 16.3716 30.2111 16.89 31.0888 17.4398L30.9758 17.4745C28.3302 18.4229 26.0298 20.0478 24.3422 22.1603C22.7947 23.9644 21.6353 26.027 20.9258 28.2353C18.9562 29.5747 17.095 31.0464 15.3576 32.6386C14.721 31.9645 14.1049 31.2766 13.5079 30.5735C14.2118 29.4119 14.9532 28.2718 15.7335 27.1526C17.8692 24.0484 20.3085 21.1312 23.0202 18.4398C24.2171 17.2581 25.486 16.1408 26.8212 15.0939C27.3522 15.3493 27.8758 15.6129 28.3918 15.8846L28.3914 15.8848ZM43.7394 24.117H43.7387C43.3813 23.9455 43.0136 23.7916 42.6385 23.6554C41.7848 23.3471 40.8997 23.1182 39.997 22.9725L39.7628 22.7423L39.7649 22.7398C41.8338 20.5291 43.9545 18.3452 46.2474 16.3237C46.016 18.8245 45.2678 21.2611 44.045 23.5016L43.7394 24.117ZM45.3576 27.0902C45.7334 27.5852 46.0071 28.1401 46.1651 28.7273C46.2304 28.9801 46.2781 29.2368 46.308 29.4953L45.8825 30.0969C45.18 29.0419 44.429 28.0141 43.6304 27.0139L44.2275 26.01C44.6537 26.3228 45.0336 26.686 45.3576 27.0908L45.3576 27.0902ZM45.2317 39.6949L45.1452 39.9629H45.1446C45.0683 40.1785 44.9743 40.3879 44.8634 40.5903L44.8457 40.6174L44.7619 40.7442L44.5822 40.985L44.3868 41.2076L44.3773 41.2177L44.2364 41.3426H44.237C44.0893 41.4681 43.9314 41.5828 43.7639 41.6856L43.7183 41.7121L43.6352 41.755L43.3187 41.8994L43.0354 42.0053L42.808 42.0785L42.2123 42.1939C41.9945 42.2254 41.7746 42.2443 41.5547 42.2557L41.4723 42.2594H41.3532C41.2184 42.2594 41.0836 42.2557 40.9488 42.25C40.4443 42.2235 39.9432 42.1598 39.4503 42.0589L39.2665 42.0211L39.2427 42.016L39.2073 42.0078L39.0187 41.9618C40.3143 40.1299 41.6133 38.2982 42.9143 36.4682C43.6224 36.1466 44.2916 35.7557 44.909 35.3017L44.9342 35.318L45.0248 35.6031V35.6024C45.2365 36.3364 45.3631 37.0893 45.4013 37.8479C45.4128 38.0415 45.4115 38.0182 45.4115 38.1752C45.4115 38.3114 45.4067 38.4495 45.3992 38.5869H45.3985C45.3829 38.8631 45.3488 39.1381 45.2964 39.4105L45.259 39.5864L45.2317 39.6949ZM36.5017 41.0481L36.3206 40.9617L36.2852 40.9447L36.2491 40.9277L35.8931 40.7391L35.7487 40.6596C36.6753 39.9004 37.6066 39.1456 38.5441 38.3964L38.8409 38.1593L40.1862 37.3988L40.7792 37.2444C39.7484 38.6777 38.7184 40.1116 37.6891 41.5474C37.2854 41.3986 36.8898 41.2308 36.5011 41.0486L36.5017 41.0481ZM29.8393 43.5314L29.7971 43.5187L29.7869 43.5156L30.8033 42.7318L29.8393 43.5314ZM22.2974 28.9713L22.3397 28.9436C25.585 26.7196 29.3097 25.1695 33.2604 24.399L34.1359 24.2628V24.2622C33.7043 25.0643 33.1998 25.8304 32.6272 26.553C30.7087 26.8172 29.0223 27.8709 28.0393 29.4197C27.6295 30.1707 27.4327 31.0062 27.4675 31.8467L26.0487 33.094C24.8253 34.1616 23.5433 35.1787 22.2709 36.1952L22.2409 36.0874C22.1585 35.7854 22.0891 35.4802 22.0265 35.1737L22.0258 35.1743C21.878 34.451 21.7902 33.7183 21.763 32.9824C21.7249 31.628 21.9046 30.2759 22.2974 28.9713L22.2974 28.9713ZM29.4785 19.6299L29.5936 19.565L29.774 19.4679L30.145 19.2799C30.4174 19.1469 30.6944 19.0258 30.9763 18.9142C31.4542 18.7067 31.9614 18.5623 32.4829 18.4854L32.6443 18.4627C33.4817 19.0384 34.2966 19.6413 35.0904 20.2706L35.1183 20.5474C35.151 21.3274 35.0284 22.1055 34.7561 22.844C34.3428 22.885 33.933 22.9367 33.5266 22.9985C29.7984 23.6348 26.2461 24.9565 23.0797 26.8854C23.542 25.8796 24.1043 24.9155 24.7579 24.0055C25.6994 22.6876 26.8486 21.5077 28.168 20.5057C28.586 20.1898 29.023 19.8979 29.4785 19.6299L29.4785 19.6299ZM29.0755 33.0864L29.0673 33.0637L29.0285 32.9256V32.9263C28.9741 32.7157 28.9346 32.5025 28.9114 32.2875C30.5065 30.8763 31.9853 29.3566 33.3353 27.7404L33.7336 27.6956C33.1413 28.4101 32.5538 29.1283 31.9724 29.8504L31.6681 30.2262L31.2195 30.416V30.4166C30.0771 31.0195 29.3316 32.1066 29.2281 33.3204L29.1872 33.3746L29.1797 33.3582L29.0755 33.0864ZM29.1252 30.3346L29.1259 30.3352C29.2791 29.9732 29.4949 29.6371 29.7658 29.3395C30.128 28.9624 30.561 28.6484 31.043 28.4132C30.4289 29.074 29.7869 29.7122 29.1259 30.3351L29.1252 30.3346ZM32.3167 31.4753L32.4467 31.4343L32.6612 31.387L32.6619 31.3876C33.2494 31.271 33.8533 31.2451 34.4497 31.3113C35.7671 31.433 37.0612 31.7136 38.3004 32.1456C37.0708 33.6268 35.7692 35.0526 34.4211 36.4386L34.0378 36.385L33.3468 36.2558L33.3366 36.2539L33.2999 36.245L33.1331 36.204L32.7511 36.0987C32.3134 35.9695 31.8879 35.808 31.4787 35.6157L31.4079 35.581L31.3105 35.5312L31.0409 35.3792L30.8496 35.2607C30.7958 35.0539 30.7557 34.8451 30.7244 34.6345L30.6856 34.2946L30.676 34.1219L30.674 34.0847V34.0714C30.6726 33.8873 30.6828 33.7025 30.7039 33.5197C31.2268 32.8361 31.7537 32.1582 32.2848 31.4866L32.3167 31.4753ZM37.0775 36.5193L36.972 36.5275L36.5955 36.5445L36.4076 36.5502H36.1748L36.7882 35.8956C37.7774 34.8293 38.7306 33.7359 39.6489 32.6148V32.6154C40.4454 32.9174 41.2243 33.2611 41.98 33.6432C40.3174 34.5588 38.6835 35.5173 37.0782 36.5192L37.0775 36.5193ZM34.9371 37.8353L35.0202 37.841L34.7601 38.015L34.9371 37.8353ZM31.7496 37.1681C32.2479 37.3441 32.7592 37.4866 33.28 37.5938L32.6162 38.2477C32.301 37.9065 32.011 37.5465 31.7496 37.1681H31.7496ZM43.247 32.7206L43.1048 32.6462C42.2851 32.2193 41.4341 31.8214 40.5619 31.4658C40.8499 31.0912 41.1338 30.7141 41.4122 30.3345V30.3339C42.1965 30.9884 42.8916 31.7293 43.4812 32.5396L43.247 32.7206ZM39.25 30.972H39.2493C37.9115 30.501 36.5207 30.1699 35.1032 29.9852C34.5865 29.9183 34.065 29.89 33.5435 29.9007C34.1385 29.1566 34.739 28.4157 35.351 27.6843C36.5322 27.7839 37.68 28.1011 38.7257 28.6188C39.2915 28.8836 39.8334 29.1901 40.346 29.5356C39.9893 30.0193 39.6237 30.4985 39.2506 30.9721L39.25 30.972ZM29.125 35.6396L29.5349 35.9902C29.9638 37.1914 30.6555 38.2975 31.5663 39.2402L31.5772 39.2522C30.584 40.2031 29.577 41.1414 28.5565 42.069L27.5203 42.6069L27.4529 42.5709L27.0812 42.3653C26.6435 42.1156 26.2248 41.8388 25.8272 41.538L25.544 41.3167L25.4657 41.2505L25.4664 41.2498C26.5815 39.3234 27.8028 37.4506 29.1257 35.6396L29.125 35.6396ZM44.9258 31.4474L44.6105 31.6833C44.3096 31.2828 43.9849 30.8982 43.6377 30.5312C43.1945 30.0614 42.7173 29.62 42.21 29.2101C42.4483 28.8633 42.6825 28.5133 42.9126 28.159L43.0576 28.3437C43.7752 29.2662 44.4587 30.2166 45.1076 31.1952L44.9258 31.4474ZM41.1391 28.425L41.1384 28.4244C39.7216 27.4596 38.0877 26.8025 36.3584 26.5024L36.5218 26.317C37.1652 25.5849 37.816 24.8579 38.4736 24.1364C38.8181 24.1673 39.1599 24.2071 39.501 24.2607C40.386 25.1687 41.2309 26.1076 42.0363 27.0757C41.7463 27.5309 41.4467 27.9806 41.1397 28.4251L41.1391 28.425ZM35.7273 25.3679L34.8477 26.373C34.6884 26.3699 34.5291 26.3711 34.3691 26.3755L34.3684 26.3749C34.8777 25.6542 35.3209 24.8956 35.694 24.106C36.0956 24.0808 36.498 24.0682 36.901 24.0676C36.5082 24.4995 36.1167 24.9327 35.728 25.3672L35.7273 25.3679ZM27.5944 33.4632L27.6972 33.373L27.6966 33.3724C27.8293 33.8025 28.02 34.2149 28.2644 34.6008C26.9055 36.437 25.6154 38.3225 24.4621 40.2703C24.2381 40.0187 24.0298 39.7576 23.8317 39.4877L23.6479 39.2267L23.4961 38.9896C23.3511 38.7563 23.2183 38.516 23.0917 38.2739C22.965 38.0317 22.8493 37.782 22.7424 37.531C24.4063 36.2207 26.0206 34.8523 27.5952 33.4625L27.5944 33.4632ZM42.739 25.9309C42.4095 25.5438 42.0745 25.1623 41.7328 24.7852L42.1147 24.9144L42.114 24.9138C42.4469 25.0324 42.7724 25.1692 43.0876 25.3231L42.739 25.9309ZM36.208 22.7464L36.2073 22.7452C36.336 22.3088 36.4231 21.8624 36.4681 21.4121C36.9787 21.8497 37.4791 22.2981 37.9672 22.7572C37.3824 22.7281 36.7942 22.725 36.208 22.7458L36.208 22.7464ZM25.8891 43.4416C25.1906 43.7941 24.49 44.1428 23.7868 44.4871C24.0796 43.8559 24.3887 43.2322 24.7148 42.6155H24.7154C25.0872 42.9131 25.48 43.1893 25.8891 43.4415L25.8891 43.4416ZM34.5666 44.3275C33.6148 44.2727 32.6677 44.1604 31.7316 43.9915C32.6786 43.2001 33.627 42.4106 34.5767 41.623H34.5774C35.2983 42.0486 36.0567 42.4181 36.8445 42.7278L35.6749 44.3698C35.3059 44.3641 34.9362 44.349 34.5672 44.3282L34.5666 44.3275ZM34.6449 45.8283L34.2452 46.3952C33.7149 46.1594 33.1893 45.9147 32.6698 45.6593C33.3234 45.7426 33.9845 45.7981 34.6448 45.829L34.6449 45.8283ZM38.1585 43.1774C39.8795 43.7386 41.7456 43.7922 43.5007 43.3306C44.4517 43.0052 45.2789 42.4276 45.8788 41.6703C46.4786 40.913 46.8251 40.0094 46.8748 39.071C46.9667 38.2537 46.9436 37.4289 46.806 36.6174C47.4991 37.1427 48.1574 37.7064 48.7776 38.3042C49.2235 39.4935 49.5864 40.708 49.8641 41.9407C49.4345 42.0851 49.0022 42.2244 48.5672 42.3588C46.2947 43.0593 43.965 43.5903 41.6012 43.9472C40.3982 44.1282 39.1864 44.2568 37.9705 44.3268L37.3285 44.3571L38.1585 43.1774ZM50.7084 40.5018C50.9263 40.7995 51.1319 41.1097 51.3211 41.4282L50.9624 41.5593C50.8861 41.2056 50.8017 40.8531 50.7098 40.5025L50.7084 40.5018ZM46.1798 34.43L46.0995 34.2364C46.2771 34.0447 46.4426 33.843 46.5944 33.633C46.9096 34.1929 47.2091 34.7605 47.4924 35.3356C47.0648 35.0215 46.6264 34.7207 46.1811 34.43L46.1798 34.43ZM49.5048 13.6719C49.9092 13.3705 50.3218 13.0798 50.7432 12.7986L51.3192 12.4246L51.6044 12.2519L51.7453 12.1686L51.8774 12.0923V12.0917C52.5466 11.7001 53.2642 11.3848 54.0152 11.1528L54.0315 11.1483L54.1466 11.1206L54.3774 11.0714L54.8567 11.0102L54.9561 11.0052L55.1576 11.0134L55.3543 11.0348L55.451 11.0512H55.4558L55.4653 11.0537L55.8071 11.1761L55.8819 11.219L56.0617 11.3426L56.0978 11.369L56.125 11.3949L56.2618 11.538L56.3415 11.6414C56.2707 11.5431 56.3585 11.6755 56.366 11.6894L56.4307 11.8212L56.4783 11.953L56.477 11.9542C56.6104 12.9367 56.4184 13.933 55.9262 14.812C55.3945 15.9659 54.764 17.0783 54.0411 18.1389C53.4944 18.9706 52.9069 19.7753 52.3616 20.6076C51.2491 22.3045 50.1265 23.995 48.9745 25.6698C48.4625 26.4133 47.9479 27.1561 47.4298 27.8977C47.1704 27.2041 46.7844 26.5571 46.2887 25.9845C45.887 25.5286 45.4214 25.1237 44.9046 24.7819C45.9252 22.9003 46.7089 20.9159 47.2385 18.8683C47.5455 17.662 47.662 16.4217 47.585 15.1845C48.2107 14.6656 48.8507 14.1617 49.5062 13.6718L49.5048 13.6719ZM32.0518 11.7714C33.7123 10.9321 35.4975 10.3249 37.3498 9.96988C38.9939 9.60856 40.7095 9.62937 42.3427 10.0298C43.528 10.3583 44.5452 11.0702 45.2088 12.037C45.5125 12.5093 45.7514 13.015 45.9203 13.5422C46.0503 13.9792 46.1395 14.425 46.1871 14.8759C43.7233 17.0091 41.3847 19.2628 39.181 21.6274L38.8999 21.9232C38.0924 21.1728 37.2578 20.4495 36.3973 19.7534L36.3966 19.7541C36.2421 18.6694 35.4843 17.7394 34.4005 17.3042C33.8858 17.1302 33.3364 17.0627 32.7911 17.1075C31.2212 16.0695 29.5743 15.1356 27.8621 14.3128C29.1774 13.3562 30.5792 12.5063 32.0518 11.7716L32.0518 11.7714ZM7.27713 18.6145H7.27645C7.21245 17.6794 7.37448 16.7429 7.7496 15.8728C8.1826 14.9617 8.87564 14.1765 9.75319 13.6022C12.505 12.0453 15.8307 11.6158 18.9372 12.4154C21.1994 12.8543 23.3951 13.5473 25.4764 14.4786C23.2589 16.2795 21.2099 18.2514 19.3518 20.3727C16.824 23.2153 14.5596 26.251 12.5832 29.4461C11.4279 27.999 10.3883 26.4755 9.47189 24.8884C8.26143 22.9677 7.51327 20.8275 7.27624 18.6148L7.27713 18.6145ZM10.0582 37.1643H10.0575C10.882 35.3072 11.8079 33.4899 12.8311 31.7193L13.2253 32.1822C13.6127 32.6305 14.0096 33.0732 14.416 33.5102C13.9122 33.985 13.4166 34.4668 12.9284 34.9555C11.7302 36.1517 10.566 37.3801 9.43594 38.6406C9.63337 38.1449 9.84033 37.6531 10.0575 37.165L10.0582 37.1643ZM2.32289 52.2036C2.40867 52.307 2.35488 52.2616 2.32289 52.2036V52.2036ZM12.1211 49.5116C10.084 50.2526 8.01715 50.9147 5.91962 51.4974C5.23882 51.6866 4.71391 51.8486 4.11611 51.9924C3.81997 52.0649 3.5204 52.1261 3.21814 52.1734L2.80829 52.22L2.66328 52.2282C2.77765 52.2226 2.56252 52.2226 2.52507 52.22L2.36509 52.2017L2.36168 52.2011L2.31675 52.186L2.30926 52.1519L2.31062 52.1267C2.45223 51.4041 2.73068 50.7098 3.13234 50.0761C3.97109 48.4384 4.92958 46.8557 6.00196 45.3391C6.43018 44.7268 6.87067 44.1221 7.32475 43.525C7.46772 43.7722 7.66651 43.9878 7.90753 44.1575C8.48077 44.4961 9.1677 44.6291 9.83966 44.5308C10.7186 44.4223 11.5771 44.2016 12.3914 43.8762C13.2431 43.5698 14.0709 43.2097 14.8702 42.7992C16.5838 41.9132 18.2184 40.9024 19.7591 39.7761L20.5189 39.2269L20.5686 39.2685C21.5694 40.1053 22.5982 40.9118 23.6547 41.6886C22.9861 42.9075 22.3755 44.1517 21.8397 45.4236C18.6672 46.9206 15.4368 48.3048 12.1198 49.5116L12.1211 49.5116ZM24.3496 45.8613L23.5674 46.565L22.57 47.4661L22.9056 46.5587L24.3496 45.8613ZM25.2347 47.3387C26.2177 46.4534 27.2226 45.5895 28.25 44.7483L28.3256 44.793L28.0362 45.0339C27.1069 45.8076 26.1729 46.5763 25.2333 47.3393L25.2347 47.3387ZM49.3645 48.9901C49.4523 48.9655 49.2699 49.0147 49.2556 49.0179L48.8498 49.1099C48.5469 49.1724 48.2419 49.2197 47.9362 49.2594C47.6462 49.2966 47.3541 49.3231 47.0621 49.3432C46.7537 49.3647 46.4105 49.376 46.2083 49.3779V49.3773C44.9788 49.3817 43.7513 49.2814 42.5422 49.0778C41.1173 48.8218 39.7183 48.4554 38.3594 47.9837C37.3994 47.6691 36.4537 47.321 35.5238 46.9395L36.2073 45.9577L36.2747 45.8618C37.3912 45.8542 38.5003 45.7906 39.5826 45.6878C43.1916 45.329 46.7391 44.5628 50.1466 43.405C50.2834 44.2462 50.3747 45.0931 50.4203 45.9425C50.4659 46.8411 50.4482 47.7416 50.3685 48.6382L50.3263 48.6565V48.6559C50.0663 48.7675 49.7987 48.864 49.5257 48.9453L49.3645 48.9901ZM52.4914 46.3897L52.4601 46.5057L52.4015 46.6772L52.2613 47.0038L52.2075 47.1085L52.1523 47.2056L51.9154 47.5323L51.703 47.7719L51.5178 47.939L51.5001 47.9529V47.9516C51.5934 46.3052 51.5069 44.6543 51.2421 43.0243L51.9848 42.7488C52.2633 43.4184 52.456 44.1165 52.5574 44.8285C52.6371 45.3481 52.6146 45.8777 52.4914 46.3904L52.4914 46.3897ZM66.9114 28.1273L66.9427 28.2357L66.9877 28.4577L67.0265 28.7938L67.0285 28.8764L67.0251 29.0012V29.0006C67.0129 29.2263 66.9809 29.4508 66.9298 29.6722L66.9005 29.7863L66.8454 29.9572L66.716 30.299H66.7154C66.6166 30.5367 66.5023 30.7688 66.3736 30.9939L66.3076 31.1055L66.1986 31.2758L65.9678 31.615C65.7908 31.8654 65.6002 32.1075 65.4035 32.3433C64.5974 33.2791 63.6926 34.1379 62.7013 34.9067C61.7148 35.7024 60.6739 36.4421 59.6118 37.1502C58.7723 37.7095 57.9159 38.2436 57.0581 38.7758L56.8185 38.9221L56.7872 38.941L56.6714 39.0053L56.0437 39.3446C55.6155 39.5703 55.1818 39.7847 54.7427 39.9922C54.0687 40.3119 53.3845 40.6108 52.6914 40.8939C52.4225 40.4304 52.1338 39.9896 51.839 39.5829L51.8404 39.5835C51.1732 38.6698 50.4121 37.8185 49.5672 37.0417C49.013 35.6481 48.3662 34.2874 47.6323 32.9669C48.6153 32.3502 49.5909 31.724 50.5576 31.0877C52.1705 30.3745 53.7997 29.6973 55.4411 29.0377C56.3629 28.6663 57.2908 28.3094 58.2337 27.9828C58.7852 27.7917 59.3421 27.6139 59.9044 27.448L60.317 27.3301L60.3592 27.3181L60.3905 27.3099L60.5988 27.2557L61.5009 27.0419V27.0413C62.0605 26.9202 62.6269 26.8282 63.1974 26.767C63.4555 26.7393 63.7135 26.7222 63.9729 26.7134H64.0192L64.2037 26.7153L64.623 26.7355V26.7361C64.8511 26.7525 65.0771 26.7834 65.3011 26.8276L65.3134 26.8294L65.3181 26.8307L65.4727 26.873L65.8172 26.9915L65.9574 27.0501L65.9758 27.0583L66.2141 27.2028L66.4108 27.3497C66.3087 27.2683 66.532 27.4764 66.5722 27.5237L66.7124 27.7085L66.8166 27.9052L66.9114 28.1273Z" fill="#5950C0"/>
</svg>
