<svg width="17" height="17" viewBox="0 0 17 17" fill="none" xmlns="http://www.w3.org/2000/svg">
<path fill-rule="evenodd" clip-rule="evenodd" d="M12.1801 0.790654C11.248 -0.141416 9.67261 0.139555 9.12022 1.33638L8.45695 2.77347C8.29204 3.13079 8.0652 3.4561 7.78693 3.73437C7.3504 4.1709 6.8013 4.47773 6.20074 4.62072L3.54389 5.25331C2.10196 5.59661 1.59498 7.38797 2.64305 8.43601L5.02933 10.8223L1.00247 14.8493C0.685376 15.1664 0.685376 15.6804 1.00247 15.9975C1.31957 16.3146 1.83359 16.3146 2.15068 15.9975L6.17765 11.9707L8.56398 14.3569C9.61203 15.405 11.4034 14.898 11.7467 13.4561L12.3793 10.7992C12.5223 10.1987 12.8291 9.6496 13.2656 9.21307C13.5439 8.9348 13.8692 8.70796 14.2265 8.54305L15.6636 7.87978C16.8604 7.32739 17.1414 5.752 16.2093 4.81993L12.1801 0.790654Z" fill="#5950C0"/>
</svg>
