<svg width="22" height="16" viewBox="0 0 22 16" fill="none" xmlns="http://www.w3.org/2000/svg">
<path d="M16.5 14.4167V13.5C16.5 11.475 14.8584 9.83333 12.8334 9.83333H9.16669C7.14164 9.83333 5.50002 11.475 5.50002 13.5V14.4167M21.0834 14.4167V13.5C21.0834 11.475 19.4417 9.83333 17.4167 9.83333H16.9584M0.916687 14.4167V13.5C0.916687 11.475 2.55831 9.83333 4.58335 9.83333H5.04169M15.5834 7.08333C17.1021 7.08333 18.3334 5.85211 18.3334 4.33333C18.3334 2.81455 17.1021 1.58333 15.5834 1.58333M6.41669 7.08333C4.8979 7.08333 3.66669 5.85211 3.66669 4.33333C3.66669 2.81455 4.8979 1.58333 6.41669 1.58333M13.75 4.33333C13.75 5.85211 12.5188 7.08333 11 7.08333C9.48124 7.08333 8.25002 5.85211 8.25002 4.33333C8.25002 2.81455 9.48124 1.58333 11 1.58333C12.5188 1.58333 13.75 2.81455 13.75 4.33333Z" stroke="#F24E1E" stroke-width="1.5" stroke-linecap="round" stroke-linejoin="round"/>
</svg>
