<svg width="17" height="17" viewBox="0 0 17 17" fill="none" xmlns="http://www.w3.org/2000/svg">
<path fill-rule="evenodd" clip-rule="evenodd" d="M12.1801 0.790654C11.248 -0.141416 9.67261 0.139555 9.12022 1.33638L8.45695 2.77347C8.29204 3.13079 8.0652 3.4561 7.78693 3.73437C7.3504 4.1709 6.8013 4.47773 6.20075 4.62072L3.54389 5.25331C2.10197 5.59661 1.59498 7.38797 2.64305 8.43601L5.02933 10.8223L1.00247 14.8493C0.685375 15.1664 0.685375 15.6804 1.00247 15.9975C1.31957 16.3146 1.83359 16.3146 2.15068 15.9975L6.17765 11.9707L8.56398 14.3569C9.61203 15.405 11.4034 14.898 11.7467 13.4561L12.3793 10.7992C12.5223 10.1987 12.8291 9.6496 13.2656 9.21307C13.5439 8.9348 13.8692 8.70796 14.2265 8.54305L15.6636 7.87978C16.8604 7.32739 17.1414 5.752 16.2093 4.81993L12.1801 0.790654ZM10.5947 2.01689C10.6736 1.84592 10.8986 1.80577 11.0318 1.93894L15.0611 5.96821C15.1942 6.10136 15.1541 6.32642 14.9831 6.40534L13.546 7.0686C13.0148 7.3138 12.5311 7.65107 12.1173 8.0648C11.4683 8.71383 11.0121 9.53021 10.7995 10.4231L10.1669 13.08C10.1179 13.286 9.86198 13.3585 9.71225 13.2087L3.79126 7.28773C3.64154 7.13801 3.71397 6.8821 3.91999 6.83306L6.57688 6.20047C7.46978 5.98787 8.28618 5.53167 8.9352 4.88265C9.34894 4.46891 9.6862 3.98523 9.9314 3.45399L10.5947 2.01689Z" fill="#5950C0"/>
</svg>
