<svg width="18" height="18" viewBox="0 0 18 18" fill="none" xmlns="http://www.w3.org/2000/svg">
<path d="M1.26964 4.80193L3.73008 2.39116C3.92228 2.20292 4.23405 2.20298 4.42613 2.39116L6.88648 4.80193C7.19625 5.10538 6.97566 5.62501 6.53845 5.62501H5.0625V15.2679C5.0625 15.5342 4.84215 15.75 4.57031 15.75H3.58594C3.31409 15.75 3.09375 15.5342 3.09375 15.2679V5.62501H1.61768C1.1796 5.62501 0.960515 5.10478 1.26964 4.80193ZM8.50781 4.17858H16.3828C16.6547 4.17858 16.875 3.96274 16.875 3.69644V2.73216C16.875 2.46586 16.6547 2.25002 16.3828 2.25002H8.50781C8.23597 2.25002 8.01562 2.46586 8.01562 2.73216V3.69644C8.01562 3.96274 8.23597 4.17858 8.50781 4.17858ZM8.01562 7.55358V6.5893C8.01562 6.323 8.23597 6.10715 8.50781 6.10715H14.4141C14.6859 6.10715 14.9062 6.323 14.9062 6.5893V7.55358C14.9062 7.81987 14.6859 8.03572 14.4141 8.03572H8.50781C8.23597 8.03572 8.01562 7.81987 8.01562 7.55358ZM8.01562 15.2679V14.3036C8.01562 14.0373 8.23597 13.8214 8.50781 13.8214H10.4766C10.7484 13.8214 10.9687 14.0373 10.9687 14.3036V15.2679C10.9687 15.5342 10.7484 15.75 10.4766 15.75H8.50781C8.23597 15.75 8.01562 15.5342 8.01562 15.2679ZM8.01562 11.4107V10.4464C8.01562 10.1801 8.23597 9.96429 8.50781 9.96429H12.4453C12.7172 9.96429 12.9375 10.1801 12.9375 10.4464V11.4107C12.9375 11.677 12.7172 11.8929 12.4453 11.8929H8.50781C8.23597 11.8929 8.01562 11.677 8.01562 11.4107Z" fill="#828282"/>
</svg>
